<svg xmlns="http://www.w3.org/2000/svg" width="200" height="200" viewBox="0 0 200 200" role="img"><title>VerityLoop</title><g transform="translate(100 100) scale(1)" fill="#fff"><g transform="rotate(-45)"><path d="M 41 -70 H -38 A 32 32 0 0 0 -70 -38 V 8 Q -70 12 -66 12 H -42 Q -38 12 -38 8 V -15 A 23 23 0 0 1 -15 -38 H 41 Q 45 -38 45 -42 V -66 Q 45 -70 41 -70 Z"/><path d="M 41 -70 H -38 A 32 32 0 0 0 -70 -38 V 8 Q -70 12 -66 12 H -42 Q -38 12 -38 8 V -15 A 23 23 0 0 1 -15 -38 H 41 Q 45 -38 45 -42 V -66 Q 45 -70 41 -70 Z" transform="rotate(180)"/><rect x="-20" y="-20" width="40" height="40" rx="5"/></g></g></svg>